<svg width="188" height="60" viewBox="0 0 188 60" fill="none" xmlns="http://www.w3.org/2000/svg">
<g clip-path="url(#clip0_2769_21965)">
<g clip-path="url(#clip1_2769_21965)">
<path d="M145.538 18.7664C145.538 20.0615 144.493 21.1132 143.202 21.1132C141.911 21.1132 140.868 20.0615 140.868 18.7664C140.868 17.4714 141.913 16.4219 143.202 16.4219C144.491 16.4219 145.538 17.4736 145.538 18.7664Z" fill="#0049F8"/>
<path d="M161.396 18.7691C161.396 19.6925 160.65 20.4444 159.729 20.4444C158.807 20.4444 158.063 19.6925 158.063 18.7691C158.063 17.8456 158.81 17.0938 159.729 17.0938C160.648 17.0938 161.396 17.8456 161.396 18.7691Z" fill="#0049F8"/>
<path d="M161.396 4.25343C161.396 5.17691 160.65 5.92873 159.729 5.92873C158.807 5.92873 158.063 5.17691 158.063 4.25343C158.063 3.32995 158.81 2.57812 159.729 2.57812C160.648 2.57812 161.396 3.32995 161.396 4.25343Z" fill="#0049F8"/>
<path d="M177.927 4.25343C177.927 5.17691 177.181 5.92873 176.259 5.92873C175.338 5.92873 174.594 5.17691 174.594 4.25343C174.594 3.32995 175.34 2.57812 176.259 2.57812C177.179 2.57812 177.927 3.32995 177.927 4.25343Z" fill="#0049F8"/>
<path d="M179.115 18.7667C179.115 20.3485 177.839 21.6349 176.26 21.6349C174.681 21.6349 173.407 20.3507 173.407 18.7667C173.407 17.1826 174.684 15.8984 176.26 15.8984C177.837 15.8984 179.115 17.1826 179.115 18.7667Z" fill="#0049F8"/>
<path d="M128.673 35.1818C128.673 36.2922 127.778 37.1917 126.673 37.1917C125.567 37.1917 124.672 36.29 124.672 35.1818C124.672 34.0736 125.567 33.1719 126.673 33.1719C127.778 33.1719 128.673 34.0736 128.673 35.1818Z" fill="#0049F8"/>
<path d="M146.342 35.1885C146.342 36.9311 144.936 38.3457 143.199 38.3457C141.463 38.3457 140.059 36.9311 140.059 35.1885C140.059 33.4458 141.465 32.0312 143.199 32.0312C144.934 32.0312 146.342 33.4458 146.342 35.1885Z" fill="#0049F8"/>
<path d="M161.396 35.1909C161.396 36.1144 160.65 36.8662 159.729 36.8662C158.807 36.8662 158.063 36.1144 158.063 35.1909C158.063 34.2674 158.81 33.5156 159.729 33.5156C160.648 33.5156 161.396 34.2674 161.396 35.1909Z" fill="#0049F8"/>
<path d="M178.261 35.1818C178.261 36.2922 177.365 37.1917 176.26 37.1917C175.155 37.1917 174.259 36.29 174.259 35.1818C174.259 34.0736 175.155 33.1719 176.26 33.1719C177.365 33.1719 178.261 34.0736 178.261 35.1818Z" fill="#0049F8"/>
<path d="M127.999 50.4982C127.999 51.2348 127.404 51.8324 126.671 51.8324C125.938 51.8324 125.343 51.2348 125.343 50.4982C125.343 49.7616 125.938 49.1641 126.671 49.1641C127.404 49.1641 127.999 49.7616 127.999 50.4982Z" fill="#0049F8"/>
<path d="M111.469 50.4982C111.469 51.2348 110.874 51.8324 110.141 51.8324C109.407 51.8324 108.813 51.2348 108.813 50.4982C108.813 49.7616 109.407 49.1641 110.141 49.1641C110.874 49.1641 111.469 49.7616 111.469 50.4982Z" fill="#0049F8"/>
<path d="M127.999 18.7717C127.999 19.5083 127.404 20.1058 126.671 20.1058C125.938 20.1058 125.343 19.5083 125.343 18.7717C125.343 18.035 125.938 17.4375 126.671 17.4375C127.404 17.4375 127.999 18.035 127.999 18.7717Z" fill="#0049F8"/>
<path d="M144.536 50.5047C144.536 51.2457 143.939 51.8454 143.202 51.8454C142.464 51.8454 141.867 51.2457 141.867 50.5047C141.867 49.7638 142.466 49.1641 143.202 49.1641C143.937 49.1641 144.536 49.7638 144.536 50.5047Z" fill="#0049F8"/>
<path d="M177.593 50.5047C177.593 51.2457 176.996 51.8454 176.259 51.8454C175.521 51.8454 174.924 51.2457 174.924 50.5047C174.924 49.7638 175.523 49.1641 176.259 49.1641C176.994 49.1641 177.593 49.7638 177.593 50.5047Z" fill="#0049F8"/>
<path d="M162.16 50.5061C162.16 51.8533 161.074 52.9419 159.735 52.9419C158.396 52.9419 157.311 51.8512 157.311 50.5061C157.311 49.1611 158.396 48.0703 159.735 48.0703C161.074 48.0703 162.16 49.1611 162.16 50.5061Z" fill="#0049F8"/>
<path d="M41.323 51.8432H51.6093L66.4093 17.7656H56.123L41.323 51.8432Z" fill="#0049F8"/>
<path d="M84.1931 51.8432H94.4794L109.279 17.7656H98.9931L84.1931 51.8432Z" fill="#0049F8"/>
<path d="M79.3828 23.7833L75.7342 38.6915H71.1469L79.3828 23.7833ZM54.2598 51.8354H64.0594L67.7664 45.1211H74.1337L72.4857 51.8354H81.6711L90.7094 17.7578H74.058L54.2641 51.8354H54.2598Z" fill="#0049F8"/>
<path d="M18.4128 12.9819H24.1312C24.713 12.5886 25.2948 12.1953 25.8787 11.8042C27.9507 10.4092 30.0248 9.01639 32.0946 7.61922L44.6389 -0.820312L16.8642 10.2658L14.563 11.1828H22.0225L18.4128 12.9819Z" fill="#0049F8"/>
<path d="M28.2174 47.3914H27.8627L27.8497 47.387C27.8238 47.387 27.7978 47.387 27.774 47.387C27.6421 47.3914 27.5123 47.3914 27.3782 47.3914H27.3198C18.4632 47.3914 7.48915 41.8222 7.36371 31.7356C7.38101 30.3776 7.59729 29.1043 7.97361 27.9113C8.02768 27.7419 8.08608 27.5724 8.14664 27.4051C8.82792 25.5364 9.91797 23.8828 11.2913 22.4595C11.7758 21.9076 12.2841 21.3774 12.8226 20.8755C13.0367 20.6647 13.2833 20.4952 13.532 20.3084C15.5023 18.8982 17.4899 17.5119 19.4883 16.1386C20.2021 15.6475 20.918 15.1586 21.6338 14.6719H19.2721C18.766 14.9891 18.2599 15.3064 17.7559 15.6258C15.7294 16.9447 13.6337 18.1615 11.7001 19.6217C9.7709 21.1428 8.05364 22.9962 6.79056 25.1192C6.44452 25.6993 6.13307 26.3012 5.86056 26.9227C5.82596 27.0009 5.78919 27.0791 5.75675 27.1573H5.75891C4.87649 29.1564 4.3877 31.3184 4.3877 33.5804C4.3877 43.5997 13.8737 51.7328 25.6199 51.8328L25.8405 51.8349H38.5837L40.4026 47.3892H28.2174V47.3914Z" fill="#0049F8"/>
<path d="M36.8965 41.1906C38.6483 39.6869 39.9871 37.7574 40.7398 35.5758C41.1788 34.3003 41.421 32.9401 41.421 31.5277C41.421 30.1153 41.1788 28.7551 40.7398 27.4817C40.039 25.4479 38.8279 23.6335 37.2468 22.1799C37.3139 22.1668 37.3788 22.1538 37.4437 22.1386C41.5249 24.2572 44.1808 27.6751 44.1808 31.5277C44.1808 35.3802 41.2848 39.1002 36.8943 41.1906M11.4576 32.7771C11.3949 32.3664 11.3603 31.9492 11.3603 31.5277C11.3603 27.6425 14.0617 24.2007 18.1991 22.0864C18.2532 22.0973 18.3051 22.1103 18.3591 22.1212C16.7478 23.5857 15.5129 25.4197 14.8013 27.4796C14.3623 28.7551 14.1201 30.1131 14.1201 31.5277C14.1201 32.9422 14.3601 34.2981 14.8013 35.5714C15.5453 37.7335 16.8646 39.6478 18.5927 41.1449C18.5819 41.1471 18.5754 41.1493 18.5646 41.1514C17.2626 40.5235 16.0947 39.7673 15.0976 38.909C13.1143 37.2011 11.8059 35.0891 11.4555 32.7771M31.9134 22.0756C31.4765 21.2629 30.9855 20.5806 30.447 20.0526C31.5695 20.183 32.6509 20.3981 33.6847 20.6806C34.2773 20.9739 34.8461 21.3085 35.3804 21.6823C34.2622 21.8539 33.1029 21.9821 31.9134 22.0734M30.9661 22.1364C30.8601 22.1429 30.7563 22.1473 30.6503 22.1538C29.7614 22.1994 28.8574 22.2233 27.9468 22.2233C26.9454 22.2233 25.9549 22.1951 24.9816 22.1408C24.8475 22.1342 24.7156 22.1256 24.5837 22.1169C25.2001 21.0608 25.9181 20.2981 26.6902 19.9244C27.0471 19.907 27.4061 19.8962 27.7695 19.8962C28.1328 19.8962 28.4918 19.907 28.8487 19.9244C29.6251 20.3003 30.3454 21.0739 30.9661 22.1386M21.8521 20.6827C22.8859 20.4003 23.9673 20.1852 25.0898 20.0548C24.5577 20.5763 24.0711 21.2499 23.6385 22.0495C22.4641 21.9539 21.3222 21.817 20.2213 21.641C20.736 21.2846 21.2811 20.9652 21.8521 20.6827ZM30.8493 27.8729L27.7327 23.577L24.6161 27.8729H22.7085C23.0113 25.9651 23.5174 24.2572 24.1706 22.9013C25.4034 22.9882 26.6664 23.0317 27.9468 23.0317C29.1082 23.0317 30.2545 22.9925 31.377 22.923C32.0237 24.2745 32.5298 25.9759 32.8304 27.8729H30.8493ZM27.5921 40.354C26.381 40.354 25.1849 40.3953 24.0127 40.4735C23.4568 39.2241 23.0178 37.7074 22.7366 36.0278H24.6161L27.7327 40.3236L30.8493 36.0278H32.8023C32.5211 37.7183 32.0778 39.2415 31.5154 40.4952C30.2372 40.4018 28.9244 40.3518 27.5943 40.3518M21.8564 42.3726C21.4065 42.151 20.9718 41.9076 20.5565 41.6382C21.4995 41.5035 22.4728 41.397 23.4655 41.3188C23.764 41.9185 24.0927 42.453 24.4474 42.9158C23.5563 42.7855 22.6912 42.6008 21.8585 42.3704M25.6997 43.0592C25.2303 42.5964 24.7935 41.9858 24.3998 41.2514C25.4488 41.1884 26.5172 41.1536 27.5964 41.1536C28.7968 41.1536 29.9777 41.1949 31.1348 41.271C30.7455 41.9945 30.3108 42.6008 29.8479 43.0571C29.1666 43.1179 28.4767 43.1527 27.7738 43.1527C27.0709 43.1527 26.381 43.1179 25.6997 43.0571M33.689 42.3683C32.8564 42.5986 31.9912 42.7833 31.098 42.9137C31.4462 42.4574 31.7706 41.9315 32.0669 41.3427C33.0424 41.4252 33.9983 41.5382 34.924 41.6751C34.5282 41.9272 34.1151 42.1597 33.689 42.3683ZM14.9073 31.5212C14.9073 29.4048 15.4761 27.4144 16.4775 25.6782C17.215 24.3962 18.1904 23.2555 19.3432 22.3016C20.2689 22.4667 21.227 22.6036 22.2111 22.7122C22.5571 22.7513 22.9075 22.7861 23.2622 22.8187C22.6242 24.2267 22.1354 25.9433 21.8521 27.8642H18.7073L21.5666 31.808C21.5666 31.821 21.5666 31.8341 21.5666 31.8493C21.5666 31.9253 21.5687 31.9992 21.5687 32.0752L18.7073 36.0212H21.8802C22.144 37.7139 22.5636 39.2436 23.1086 40.5343C23.0805 40.5365 23.0524 40.5409 23.0243 40.5409C21.8521 40.643 20.7123 40.7842 19.6136 40.9624C18.3418 39.9694 17.2712 38.746 16.4775 37.3641C15.4761 35.6279 14.9073 33.6376 14.9073 31.5233M39.0701 25.6804C40.0693 27.4166 40.6381 29.4069 40.6381 31.5233C40.6381 33.6397 40.0693 35.6301 39.0679 37.3663C38.259 38.7721 37.1668 40.0085 35.867 41.0124C34.7596 40.8255 33.609 40.6756 32.4238 40.5669C32.9732 39.2675 33.3992 37.7291 33.6653 36.0234H36.7645L33.9767 32.1796C33.9767 32.0709 33.981 31.9623 33.981 31.8536C33.981 31.8058 33.981 31.7602 33.9789 31.7102L36.7645 27.8685H33.6955C33.4144 25.9607 32.9299 24.255 32.2984 22.8513C32.6812 22.8187 33.0575 22.7818 33.4338 22.7427C34.4028 22.6405 35.3479 22.5102 36.2628 22.3559C37.3896 23.2989 38.3434 24.4223 39.0679 25.6826M27.7695 17.9297C18.5127 17.9297 10.8391 23.0273 9.58683 29.6286C9.47004 30.25 9.40515 30.8823 9.40515 31.5255C9.40515 35.9343 12.2579 39.8586 16.6678 42.3465L16.6786 42.3878C16.6938 42.3835 16.7068 42.3813 16.7219 42.377C17.1393 42.6095 17.574 42.8289 18.0174 43.0375C20.8442 44.3565 24.1879 45.1213 27.7716 45.1213C31.8658 45.1213 35.6529 44.124 38.7111 42.44C38.7608 42.453 38.8106 42.4639 38.8603 42.4769L38.8992 42.3335C43.294 39.8477 46.1381 35.9278 46.1381 31.5277C46.1381 24.0312 37.9 17.9319 27.7738 17.9319" fill="#0049F8"/>
</g>
</g>
<defs>
<clipPath id="clip0_2769_21965">
<rect width="175.966" height="54.0678" fill="white" transform="translate(4.16736)"/>
</clipPath>
<clipPath id="clip1_2769_21965">
<rect width="174.726" height="53.7618" fill="white" transform="translate(4.38721 -0.820312)"/>
</clipPath>
</defs>
</svg>
